<?xml version="1.0" standalone="no"?><!DOCTYPE svg PUBLIC "-//W3C//DTD SVG 1.1//EN" "http://www.w3.org/Graphics/SVG/1.1/DTD/svg11.dtd"><svg t="1763642840906" class="icon" viewBox="0 0 1024 1024" version="1.1" xmlns="http://www.w3.org/2000/svg" p-id="5148" width="32" height="32" xmlns:xlink="http://www.w3.org/1999/xlink"><path d="M230.4 294.4m-57.6 0a57.6 57.6 0 1 0 115.2 0 57.6 57.6 0 1 0-115.2 0Z" fill="#C6E2FF" p-id="5149"></path><path d="M659.2 787.2H230.4c-32 0-57.6 25.6-57.6 57.6v57.6h544v-57.6c0-32-25.6-57.6-57.6-57.6zM582.4 217.6h70.4V384H582.4z" fill="#C6E2FF" p-id="5150"></path><path d="M787.2 128l76.8 76.8c6.4 6.4 12.8 6.4 19.2 6.4 6.4 0 19.2 0 25.6-6.4l6.4-12.8c12.8-12.8 12.8-25.6 0-32L812.8 57.6c-12.8-6.4-19.2-6.4-25.6-6.4-6.4 0-19.2 0-25.6 6.4l-89.6 89.6h-128c-19.2-6.4-32 6.4-32 25.6V256H358.4c-19.2-57.6-64-89.6-121.6-89.6-76.8 6.4-134.4 57.6-134.4 128s51.2 128 121.6 128l76.8 288H230.4c-76.8 0-128 57.6-128 128v89.6c0 32 12.8 38.4 32 38.4h620.8c25.6 0 32-12.8 32-32v-96c0-76.8-57.6-128-128-128H371.2L300.8 435.2l-6.4-19.2c32-19.2 51.2-44.8 64-83.2H512v89.6c0 19.2 12.8 32 32 32h153.6c6.4 0 19.2-6.4 25.6-12.8l44.8 51.2c6.4 6.4 12.8 6.4 19.2 6.4 6.4 0 19.2-6.4 25.6-12.8l96-96c6.4-19.2 6.4-32-12.8-44.8-6.4-6.4-12.8-6.4-19.2-6.4-6.4 0-19.2 0-25.6 6.4l-70.4 70.4-64-64V192l70.4-64z m-128 659.2c32 0 57.6 25.6 57.6 57.6v57.6H172.8v-57.6c0-32 25.6-57.6 57.6-57.6h428.8zM230.4 358.4c-38.4 0-57.6-25.6-57.6-64 0-32 25.6-57.6 57.6-57.6s57.6 25.6 57.6 57.6c0 38.4-25.6 64-57.6 64z m422.4 25.6H582.4V217.6h70.4V384z" fill="#0C83F5" p-id="5151"></path></svg>